<?xml version="1.0" encoding="utf-8"?>
<svg version="1.1" xmlns="http://www.w3.org/2000/svg" viewBox="0 0 48 48">
<rect width="48" height="48" rx="8" fill="#0f1b2d"/>
<g fill="#ffffff">
	<path d="M14.5,20.6c-2,0-3.6,1.6-3.6,3.6v17.3h1.8V24.4c0-1,0.8-1.9,1.9-1.9s1.9,0.8,1.9,1.9v17.1h1.8V24.2
		C18.2,22.2,16.5,20.6,14.5,20.6z"/>
	<path d="M24,20.6c-2,0-3.6,1.6-3.6,3.6v17.3h1.8V24.4c0-1,0.8-1.9,1.9-1.9c1,0,1.9,0.8,1.9,1.9v17.1h1.8V24.2
		C27.6,22.2,26,20.6,24,20.6z"/>
	<path d="M43.5,14.3H4.5c-0.8,0-1.4,0.6-1.4,1.4s0.6,1.4,1.4,1.4h39.1c0.8,0,1.4-0.6,1.4-1.4S44.3,14.3,43.5,14.3z"/>
	<path d="M45.8,8.4H2.2c-1.3,0-2.3,1-2.3,2.3v0c0,1.3,1,2.3,2.3,2.3h43.6c1.3,0,2.3-1,2.3-2.3v0C48.1,9.4,47.1,8.4,45.8,8.4z"/>
	<path d="M38.8,18.4H9c-1.2,0-2.2,1-2.2,2.2v1.1C6.8,23,7.8,24,9,24h1c0.1-2.5,2.1-4.4,4.5-4.4c2.5,0,4.5,2,4.5,4.4h0.4
		c0.1-2.5,2.1-4.4,4.5-4.4s4.5,2,4.5,4.4h0.4c0.1-2.5,2.1-4.4,4.5-4.4c2.5,0,4.5,2,4.5,4.4h0.8c1.2,0,2.2-1,2.2-2.2v-1.1
		C41,19.4,40,18.4,38.8,18.4z"/>
	<path d="M33.5,20.6c-2,0-3.6,1.6-3.6,3.6v17.3h1.8V24.4c0-1,0.8-1.9,1.9-1.9s1.9,0.8,1.9,1.9v17.1h1.8V24.2
		C37.1,22.2,35.4,20.6,33.5,20.6z"/>
</g>
</svg>
